<svg version="1.1" id="Layer_1" xmlns="http://www.w3.org/2000/svg" xmlns:xlink="http://www.w3.org/1999/xlink" x="0px" y="0px"
	 width="100%" viewBox="0 0 870 725" enable-background="new 0 0 870 725" xml:space="preserve">
<path fill="#FEFEFE" opacity="1.000000" stroke="none" 
	d="
M627.000000,726.000000 
	C418.000000,726.000000 209.500000,726.000000 1.000000,726.000000 
	C1.000000,484.333344 1.000000,242.666672 1.000000,1.000000 
	C291.000000,1.000000 581.000000,1.000000 871.000000,1.000000 
	C871.000000,242.666672 871.000000,484.333344 871.000000,726.000000 
	C789.833313,726.000000 708.666687,726.000000 627.000000,726.000000 
M213.236435,609.872070 
	C213.628387,609.192627 214.020355,608.513123 213.962433,607.252502 
	C213.033157,606.963440 212.103882,606.674377 210.646881,605.984314 
	C201.035446,602.921387 191.591095,599.104492 181.782532,596.931152 
	C146.539978,589.122314 111.738617,593.174133 77.255310,602.094482 
	C76.023941,602.412964 74.999008,603.529419 73.877869,604.273987 
	C74.082230,604.712891 74.286583,605.151794 74.490944,605.590698 
	C76.558823,605.243408 78.640717,604.963745 80.692429,604.538513 
	C103.574463,599.795166 126.643463,597.543091 150.044495,598.630981 
	C170.715179,599.591980 190.930038,603.061829 211.279343,608.887939 
	C211.810272,609.032959 212.341202,609.178040 213.236435,609.872070 
M68.105537,604.988770 
	C67.403816,605.309265 66.702095,605.629761 65.302170,605.954712 
	C63.832424,606.552246 62.362679,607.149780 60.157841,607.836792 
	C58.478989,608.663696 56.800137,609.490662 54.381725,610.086853 
	C50.294098,611.491760 46.206470,612.896729 42.118839,614.301697 
	C61.005650,613.416199 79.651993,611.075806 98.371323,609.960449 
	C117.471001,608.822449 136.668167,608.064331 155.775070,608.661621 
	C174.417999,609.244446 193.000778,611.750977 212.434311,613.486572 
	C211.138168,612.778503 210.615616,612.339417 210.020325,612.189880 
	C177.470551,604.017456 144.426300,600.990234 110.986679,603.611389 
	C96.621468,604.737427 82.353142,607.099426 68.006218,608.258118 
	C68.337036,607.771606 68.667854,607.285095 69.832596,606.883118 
	C71.272171,606.305908 72.711746,605.728699 74.151321,605.151489 
	C73.960251,604.614319 73.769180,604.077148 73.578117,603.539978 
	C72.017891,604.036255 70.457664,604.532532 68.105537,604.988770 
M414.054565,605.610840 
	C414.018280,606.005859 413.981995,606.400818 413.137146,606.825806 
	C364.069641,599.905457 302.276550,603.167175 281.343018,614.302368 
	C338.538940,604.279724 395.616577,607.769897 452.650604,616.239563 
	C452.729980,615.703552 452.809357,615.167542 452.888733,614.631531 
	C448.239105,613.182129 443.589508,611.732727 438.506409,609.708618 
	C381.358246,588.597656 324.517029,584.632751 268.315887,612.886414 
	C269.896332,612.903076 271.441101,612.617310 272.916473,612.124146 
	C301.877319,602.444275 331.573242,597.497864 362.147491,598.475769 
	C379.621552,599.034668 396.988190,600.648071 414.054565,605.610840 
M75.811157,540.314514 
	C80.572342,535.193237 85.151062,529.880981 90.197586,525.058289 
	C91.875069,523.455200 94.728882,522.418152 97.088058,522.334106 
	C101.757950,522.168030 106.457886,522.845947 111.145401,523.174866 
	C111.227173,522.710083 111.308937,522.245300 111.390709,521.780457 
	C98.148750,518.489258 84.906792,515.198059 71.046051,511.753113 
	C72.550087,510.506775 73.824120,509.297119 75.245605,508.297028 
	C89.390472,498.345398 103.616280,488.507416 117.675774,478.437042 
	C120.600822,476.341919 123.194527,476.114532 126.404144,477.332184 
	C136.890884,481.310638 147.432983,485.143219 158.032501,489.060974 
	C158.032501,469.982605 158.110001,450.656830 157.958374,431.332886 
	C157.932251,428.004944 158.975388,426.142365 161.697296,424.090546 
	C169.917130,417.894348 177.633347,411.033691 185.771790,404.723419 
	C187.914612,403.061920 190.871597,401.511963 193.460632,401.502350 
	C251.623306,401.286469 309.786804,401.294861 367.950165,401.246857 
	C369.368927,401.245697 370.787567,401.084198 371.903351,401.015991 
	C371.903351,374.405396 371.903351,348.327545 371.903351,321.892181 
	C318.477448,321.892181 265.382538,321.892181 211.784332,321.892181 
	C211.784332,310.123291 211.784332,298.705200 211.784332,287.315247 
	C193.071533,285.300690 175.140259,282.142944 158.285645,274.946991 
	C158.285645,246.387039 158.285645,218.124207 158.285645,189.235901 
	C245.166367,189.235901 331.745941,189.235901 418.447632,189.235901 
	C418.447632,161.857880 418.447632,135.108719 418.447632,108.247803 
	C294.760376,108.247803 171.369446,108.247803 47.760185,108.247803 
	C47.760185,270.426025 47.760185,432.296844 47.760185,595.167725 
	C59.021194,584.873840 69.573044,575.228210 80.124886,565.582642 
	C79.982224,565.262024 79.839561,564.941467 79.696899,564.620850 
	C70.594238,565.373352 61.491570,566.125916 51.325760,566.966309 
	C59.835590,557.695923 67.579651,549.259766 75.811157,540.314514 
M543.987793,402.022644 
	C544.893127,402.022644 545.798401,402.022644 547.326050,402.022644 
	C540.505920,389.988281 534.259277,378.483917 527.492004,367.294434 
	C525.219604,363.537018 525.414734,361.112427 528.100464,357.780670 
	C533.661011,350.882538 538.752319,343.606140 543.966553,336.579590 
	C537.267395,334.258423 533.648132,337.378326 530.505615,342.328094 
	C527.708740,346.733368 524.246399,350.716064 520.846008,355.190155 
	C517.531433,349.339874 514.648743,344.113739 511.604431,338.983459 
	C510.913879,337.819702 509.685150,336.161713 508.666443,336.134277 
	C500.148621,335.905243 491.621948,336.004150 482.422577,336.004150 
	C489.106354,347.828247 495.205933,358.858612 501.579987,369.728058 
	C503.192352,372.477570 502.999237,374.285400 501.063019,376.737335 
	C496.114746,383.003601 491.486816,389.522552 486.719299,395.931915 
	C485.533661,397.525879 484.304535,399.087524 483.095398,400.664062 
	C482.776764,400.466095 482.458099,400.268158 482.139465,400.070190 
	C482.139465,397.809509 482.139465,395.548828 482.139465,392.882263 
	C469.602020,392.882263 457.347076,392.882263 445.136597,392.882263 
	C445.136597,380.741760 445.136597,369.016754 445.136597,356.879486 
	C454.167450,356.879486 462.915802,356.879486 471.638733,356.879486 
	C471.638733,353.723755 471.638733,350.993408 471.638733,347.875305 
	C462.605286,347.875305 453.850128,347.875305 445.134277,347.875305 
	C445.134277,338.746002 445.134277,330.019684 445.134277,320.940430 
	C455.839111,320.940430 466.261780,320.940430 476.813293,320.940430 
	C476.813293,317.841309 476.813293,315.104126 476.813293,312.321625 
	C457.392090,312.321625 438.182251,312.321625 419.182220,312.321625 
	C419.182220,342.372864 419.182220,372.099121 419.182220,402.021820 
	C442.639557,402.021820 465.774963,402.069000 488.908905,401.908966 
	C490.355530,401.898956 492.190277,400.578857 493.163910,399.335358 
	C497.960968,393.208801 502.528381,386.902435 507.411896,380.343781 
	C511.099396,386.732971 514.669067,392.542694 517.832275,398.565857 
	C519.291016,401.343536 521.069946,402.204590 524.099915,402.093292 
	C530.421387,401.861084 536.757263,402.022888 543.987793,402.022644 
M173.499969,630.117310 
	C188.330063,630.102173 203.161499,629.986084 217.988831,630.180603 
	C220.221603,630.209961 222.827271,631.190857 224.595047,632.579041 
	C237.214478,642.487976 256.407166,642.632202 269.269531,632.953857 
	C271.307617,631.420227 274.216919,630.259827 276.727081,630.252991 
	C340.214539,630.078613 403.702515,630.081665 467.190369,630.053772 
	C468.770844,630.053040 470.351318,630.053711 471.701294,630.053711 
	C471.701294,625.873108 471.701294,622.441772 471.701294,619.124329 
	C471.211700,618.978882 471.059784,618.894226 470.907806,618.894165 
	C403.756989,618.861877 336.606171,618.823975 269.455444,618.885193 
	C268.008911,618.886536 266.272247,619.698181 265.162781,620.684875 
	C254.938385,629.778320 240.871552,630.086548 229.961029,621.706299 
	C227.833939,620.072449 224.688690,618.972107 222.009567,618.965210 
	C161.021957,618.807495 100.033852,618.836121 39.045841,618.830078 
	C33.433708,618.829529 27.821579,618.830017 22.223469,618.830017 
	C22.223469,622.932617 22.223469,626.479919 22.223469,630.118042 
	C72.543167,630.118042 122.521568,630.118042 173.499969,630.117310 
M685.141602,386.497467 
	C685.155762,378.666016 684.959656,370.826202 685.272217,363.006683 
	C685.429688,359.067108 686.145142,355.054657 687.281372,351.277679 
	C688.296631,347.902893 691.040527,344.956573 694.695496,346.385284 
	C696.411621,347.056122 697.783691,350.809967 697.828491,353.194519 
	C698.110046,368.185974 697.966797,383.185272 697.989563,398.181946 
	C697.991516,399.438660 698.181091,400.695099 698.261902,401.687347 
	C706.420349,401.687347 714.165588,401.687347 722.006287,401.687347 
	C722.006287,384.364258 722.157898,367.375610 721.954712,350.391144 
	C721.811462,338.413849 713.947083,332.309967 702.043701,334.248169 
	C695.085693,335.381104 689.879028,339.203308 685.500549,344.515045 
	C677.912231,330.959991 663.163330,329.981293 648.896118,344.766266 
	C648.896118,341.080841 648.896118,337.853333 648.896118,334.482758 
	C640.703491,335.082794 632.988770,335.647827 625.088379,336.226440 
	C625.088379,358.069672 625.088379,379.816345 625.088379,401.787903 
	C632.970337,401.787903 640.700012,401.787903 648.847290,401.787903 
	C648.847290,399.934784 648.840393,398.310852 648.848450,396.687012 
	C648.909485,384.357758 648.679993,372.015930 649.207092,359.706543 
	C649.375000,355.782928 651.163452,351.741425 653.021423,348.176514 
	C653.694336,346.885284 656.814697,346.220093 658.665283,346.458282 
	C659.632446,346.582733 660.904236,349.267761 660.948608,350.827332 
	C661.218628,360.316559 661.193298,369.814667 661.230347,379.309937 
	C661.259460,386.758942 661.236206,394.208160 661.236206,401.730591 
	C669.482178,401.730591 677.213745,401.730591 685.141602,401.730591 
	C685.141602,396.791290 685.141602,392.143921 685.141602,386.497467 
M308.755737,552.232605 
	C338.213379,531.391479 370.338135,516.345642 406.339905,507.834930 
	C395.314789,500.530640 384.865601,493.814545 374.674438,486.727417 
	C371.705627,484.662872 369.207184,484.516602 365.956696,485.569641 
	C324.992798,498.840698 294.503387,525.304260 272.252899,561.391602 
	C263.476440,575.625854 256.910095,591.222839 249.337402,606.199280 
	C249.948975,606.635742 250.560547,607.072205 251.172134,607.508667 
	C267.392120,586.260559 286.479858,568.072083 308.755737,552.232605 
M175.200317,545.235291 
	C201.367493,562.151917 224.034912,582.854736 243.149368,608.428223 
	C243.026581,606.937378 243.129501,606.090942 242.872803,605.373169 
	C233.669006,579.638611 221.004898,555.887268 202.673080,535.392273 
	C181.634308,511.870941 156.913177,493.986267 126.099655,485.490326 
	C124.483299,485.044678 122.184563,484.710693 120.980049,485.503937 
	C110.189087,492.610413 99.572495,499.981689 89.445915,506.904999 
	C104.145058,512.152649 119.177101,516.527039 133.337296,522.853027 
	C147.528000,529.192688 160.848495,537.480286 175.200317,545.235291 
M559.771973,339.183685 
	C554.037109,343.379974 553.967041,349.155792 555.168945,355.545349 
	C557.973877,356.080200 560.730103,356.616486 563.491333,357.125092 
	C564.239258,357.262878 565.002625,357.316925 565.895203,357.426056 
	C565.571655,354.233795 565.068970,351.481110 565.062317,348.727203 
	C565.050293,343.741882 568.180420,341.235321 572.673157,340.261749 
	C579.144165,338.859467 584.121155,340.780212 585.995544,345.196503 
	C587.981689,349.876068 587.105652,354.029297 582.537476,356.948395 
	C578.671692,359.418549 574.189270,360.905884 570.054016,362.976624 
	C565.198242,365.408203 559.873535,367.323181 555.738281,370.677734 
	C549.177429,376.000031 548.768921,383.607635 551.020569,391.266876 
	C553.025940,398.088348 558.171875,401.215973 564.945679,402.431427 
	C573.826660,404.024963 581.669678,402.218933 588.222717,395.868530 
	C594.340698,404.130524 609.110779,405.499146 620.363586,399.004028 
	C619.710083,397.393860 619.045532,395.756439 618.399597,394.164886 
	C612.276306,395.652588 610.696289,394.542419 610.626343,388.224152 
	C610.486084,375.570282 610.478271,362.912598 610.623657,350.258911 
	C610.694702,344.073059 608.408752,339.221008 602.573792,337.254517 
	C588.414246,332.482544 574.243896,332.264648 559.771973,339.183685 
M159.665497,544.849792 
	C140.583313,534.150879 119.740181,530.734497 98.248459,530.058044 
	C97.175331,530.024292 95.696671,530.161865 95.062149,530.836304 
	C87.145935,539.250244 79.351051,547.778320 70.465019,557.428223 
	C127.524261,553.093506 178.592422,566.532898 224.992691,597.885681 
	C206.160553,576.714355 184.714279,559.119202 159.665497,544.849792 
M380.100708,557.414368 
	C394.325134,557.414368 408.549591,557.414368 423.494171,557.414368 
	C414.862854,548.375793 406.584595,539.581665 398.093536,530.998047 
	C397.188904,530.083557 395.034821,530.148621 393.469482,530.182373 
	C369.904572,530.690308 347.914856,536.482971 327.662994,548.940857 
	C305.601562,562.511902 285.922668,578.855896 268.336639,597.943787 
	C269.824310,597.830933 271.266937,597.566162 272.373444,596.809753 
	C304.680847,574.724731 340.240692,561.533142 380.100708,557.414368 
M824.186096,341.666290 
	C825.437195,339.982330 826.688232,338.298340 828.031372,336.490417 
	C822.297424,334.989777 818.306824,336.152832 815.247070,341.239838 
	C812.332031,346.086182 808.524170,350.395447 804.880310,355.245056 
	C801.455139,349.210144 798.593384,343.952911 795.483765,338.846680 
	C794.746887,337.636566 793.200806,336.156708 791.988708,336.121552 
	C783.737366,335.882355 775.475769,335.996368 766.460754,335.996368 
	C771.273865,344.564178 774.964355,353.043091 780.353699,360.252014 
	C787.354980,369.617249 787.188965,377.137573 778.800659,385.403534 
	C774.077942,390.057373 770.686768,396.062439 766.760925,401.370636 
	C773.277222,403.720581 776.810242,400.826721 779.909363,395.975403 
	C783.291077,390.681671 787.327026,385.805847 791.393066,380.322693 
	C795.226318,386.969238 798.692383,393.168274 802.388184,399.227264 
	C803.124268,400.434021 804.716553,401.864929 805.951233,401.900391 
	C814.190063,402.137085 822.438965,402.023285 831.324890,402.023285 
	C824.200195,389.445404 817.507141,377.440613 810.585754,365.568909 
	C809.190491,363.175629 809.212219,361.645172 810.942444,359.462341 
	C815.385193,353.857330 819.528503,348.014984 824.186096,341.666290 
M386.365295,564.930298 
	C351.396210,566.560608 319.357574,577.696167 289.083984,595.104431 
	C340.844727,578.551758 391.492096,584.956299 442.065430,601.497375 
	C440.560516,599.345581 438.610962,597.853455 436.772522,596.235046 
	C428.156372,588.650452 419.191528,581.410278 411.091034,573.307495 
	C404.272369,566.486938 397.012817,562.695679 386.365295,564.930298 
M96.833977,564.425720 
	C94.779938,565.190918 92.288162,565.453857 90.741760,566.801453 
	C79.328331,576.748230 68.102142,586.909912 56.820969,597.008423 
	C55.558468,598.138489 54.320435,599.296021 53.071060,600.440796 
	C78.229156,592.869873 103.452225,587.461731 129.464630,585.943604 
	C155.524292,584.422668 181.016617,587.097839 205.814529,595.735657 
	C172.401138,576.063538 136.564575,565.014709 96.833977,564.425720 
M735.956482,355.500427 
	C735.956482,370.904694 735.956482,386.308960 735.956482,401.801880 
	C744.181641,401.801880 751.910095,401.801880 759.687256,401.801880 
	C759.687256,379.268188 759.687256,356.953766 759.687256,334.661743 
	C751.648254,335.255280 743.919312,335.825928 735.956482,336.413818 
	C735.956482,342.573273 735.956482,348.536957 735.956482,355.500427 
M262.910156,561.443604 
	C267.477203,554.440369 272.044250,547.437195 276.683807,540.322754 
	C256.646667,540.322754 237.093552,540.322754 218.568832,540.322754 
	C228.201279,557.675537 237.947220,575.232788 247.309753,592.099365 
	C252.058228,582.638306 257.239105,572.315735 262.910156,561.443604 
M759.134216,317.674561 
	C757.668945,311.062866 750.397827,308.130585 742.345520,310.903992 
	C737.260986,312.655243 734.995422,318.874084 738.283630,323.120758 
	C741.815308,327.681915 746.976379,327.386536 752.028381,326.547546 
	C756.510620,325.803192 759.287476,323.400696 759.134216,317.674561 
M431.942444,542.526245 
	C431.942444,540.089844 431.942444,537.653503 431.942444,535.264465 
	C425.757507,535.264465 420.081573,535.264465 413.576447,535.264465 
	C419.788330,542.080078 425.444061,548.285522 431.943390,555.416504 
	C431.943390,550.433289 431.943390,546.961853 431.942444,542.526245 
M423.308899,574.188049 
	C425.946289,576.528564 428.583679,578.869080 431.748016,581.677246 
	C431.748016,575.836121 431.748016,570.946838 431.748016,565.956970 
	C425.688629,565.588440 419.882202,565.235291 412.702240,564.798645 
	C416.863068,568.469543 419.827209,571.084717 423.308899,574.188049 
z"/>
<path fill="#040404" opacity="1.000000" stroke="none" 
	d="
M75.567429,540.569092 
	C67.579651,549.259766 59.835590,557.695923 51.325760,566.966309 
	C61.491570,566.125916 70.594238,565.373352 79.696899,564.620850 
	C79.839561,564.941467 79.982224,565.262024 80.124886,565.582642 
	C69.573044,575.228210 59.021194,584.873840 47.760185,595.167725 
	C47.760185,432.296844 47.760185,270.426025 47.760185,108.247803 
	C171.369446,108.247803 294.760376,108.247803 418.447632,108.247803 
	C418.447632,135.108719 418.447632,161.857880 418.447632,189.235901 
	C331.745941,189.235901 245.166367,189.235901 158.285645,189.235901 
	C158.285645,218.124207 158.285645,246.387039 158.285645,274.946991 
	C175.140259,282.142944 193.071533,285.300690 211.784332,287.315247 
	C211.784332,298.705200 211.784332,310.123291 211.784332,321.892181 
	C265.382538,321.892181 318.477448,321.892181 371.903351,321.892181 
	C371.903351,348.327545 371.903351,374.405396 371.903351,401.015991 
	C370.787567,401.084198 369.368927,401.245697 367.950165,401.246857 
	C309.786804,401.294861 251.623306,401.286469 193.460632,401.502350 
	C190.871597,401.511963 187.914612,403.061920 185.771790,404.723419 
	C177.633347,411.033691 169.917130,417.894348 161.697296,424.090546 
	C158.975388,426.142365 157.932251,428.004944 157.958374,431.332886 
	C158.110001,450.656830 158.032501,469.982605 158.032501,489.060974 
	C147.432983,485.143219 136.890884,481.310638 126.404144,477.332184 
	C123.194527,476.114532 120.600822,476.341919 117.675774,478.437042 
	C103.616280,488.507416 89.390472,498.345398 75.245605,508.297028 
	C73.824120,509.297119 72.550087,510.506775 71.046051,511.753113 
	C84.906792,515.198059 98.148750,518.489258 111.390709,521.780457 
	C111.308937,522.245300 111.227173,522.710083 111.145401,523.174866 
	C106.457886,522.845947 101.757950,522.168030 97.088058,522.334106 
	C94.728882,522.418152 91.875069,523.455200 90.197586,525.058289 
	C85.151062,529.880981 80.572342,535.193237 75.567429,540.569092 
M88.744820,374.769470 
	C99.540321,397.992432 118.734360,412.401459 140.573334,423.973969 
	C141.583496,424.509247 143.512634,424.361298 144.497772,423.728363 
	C153.293259,418.077698 162.414276,412.806000 170.593826,406.351135 
	C187.366821,393.114807 199.433929,376.260742 201.302979,354.550140 
	C202.969955,335.186615 202.318344,315.623291 202.660324,296.147644 
	C202.664780,295.894470 202.279709,295.634399 201.995621,295.275421 
	C181.882126,293.292542 162.634369,287.978058 144.455399,278.826385 
	C143.177963,278.183289 141.060822,278.611389 139.542465,279.139862 
	C129.068558,282.785522 118.797974,287.100494 108.166962,290.182556 
	C99.654289,292.650421 90.725426,293.682678 81.828033,295.381378 
	C81.828033,311.444885 81.742233,327.263672 81.857849,343.080963 
	C81.936440,353.832245 83.989647,364.222626 88.744820,374.769470 
z"/>
<path fill="#020202" opacity="1.000000" stroke="none" 
	d="
M543.537476,402.022736 
	C536.757263,402.022888 530.421387,401.861084 524.099915,402.093292 
	C521.069946,402.204590 519.291016,401.343536 517.832275,398.565857 
	C514.669067,392.542694 511.099396,386.732971 507.411896,380.343781 
	C502.528381,386.902435 497.960968,393.208801 493.163910,399.335358 
	C492.190277,400.578857 490.355530,401.898956 488.908905,401.908966 
	C465.774963,402.069000 442.639557,402.021820 419.182220,402.021820 
	C419.182220,372.099121 419.182220,342.372864 419.182220,312.321625 
	C438.182251,312.321625 457.392090,312.321625 476.813293,312.321625 
	C476.813293,315.104126 476.813293,317.841309 476.813293,320.940430 
	C466.261780,320.940430 455.839111,320.940430 445.134277,320.940430 
	C445.134277,330.019684 445.134277,338.746002 445.134277,347.875305 
	C453.850128,347.875305 462.605286,347.875305 471.638733,347.875305 
	C471.638733,350.993408 471.638733,353.723755 471.638733,356.879486 
	C462.915802,356.879486 454.167450,356.879486 445.136597,356.879486 
	C445.136597,369.016754 445.136597,380.741760 445.136597,392.882263 
	C457.347076,392.882263 469.602020,392.882263 482.139465,392.882263 
	C482.139465,395.548828 482.139465,397.809509 482.139465,400.070190 
	C482.458099,400.268158 482.776764,400.466095 483.095398,400.664062 
	C484.304535,399.087524 485.533661,397.525879 486.719299,395.931915 
	C491.486816,389.522552 496.114746,383.003601 501.063019,376.737335 
	C502.999237,374.285400 503.192352,372.477570 501.579987,369.728058 
	C495.205933,358.858612 489.106354,347.828247 482.422577,336.004150 
	C491.621948,336.004150 500.148621,335.905243 508.666443,336.134277 
	C509.685150,336.161713 510.913879,337.819702 511.604431,338.983459 
	C514.648743,344.113739 517.531433,349.339874 520.846008,355.190155 
	C524.246399,350.716064 527.708740,346.733368 530.505615,342.328094 
	C533.648132,337.378326 537.267395,334.258423 543.966553,336.579590 
	C538.752319,343.606140 533.661011,350.882538 528.100464,357.780670 
	C525.414734,361.112427 525.219604,363.537018 527.492004,367.294434 
	C534.259277,378.483917 540.505920,389.988281 547.326050,402.022644 
	C545.798401,402.022644 544.893127,402.022644 543.537476,402.022736 
z"/>
<path fill="#040505" opacity="1.000000" stroke="none" 
	d="
M172.999969,630.117676 
	C122.521568,630.118042 72.543167,630.118042 22.223469,630.118042 
	C22.223469,626.479919 22.223469,622.932617 22.223469,618.830017 
	C27.821579,618.830017 33.433708,618.829529 39.045841,618.830078 
	C100.033852,618.836121 161.021957,618.807495 222.009567,618.965210 
	C224.688690,618.972107 227.833939,620.072449 229.961029,621.706299 
	C240.871552,630.086548 254.938385,629.778320 265.162781,620.684875 
	C266.272247,619.698181 268.008911,618.886536 269.455444,618.885193 
	C336.606171,618.823975 403.756989,618.861877 470.907806,618.894165 
	C471.059784,618.894226 471.211700,618.978882 471.701294,619.124329 
	C471.701294,622.441772 471.701294,625.873108 471.701294,630.053711 
	C470.351318,630.053711 468.770844,630.053040 467.190369,630.053772 
	C403.702515,630.081665 340.214539,630.078613 276.727081,630.252991 
	C274.216919,630.259827 271.307617,631.420227 269.269531,632.953857 
	C256.407166,642.632202 237.214478,642.487976 224.595047,632.579041 
	C222.827271,631.190857 220.221603,630.209961 217.988831,630.180603 
	C203.161499,629.986084 188.330063,630.102173 172.999969,630.117676 
z"/>
<path fill="#030303" opacity="1.000000" stroke="none" 
	d="
M685.141602,386.997009 
	C685.141602,392.143921 685.141602,396.791290 685.141602,401.730591 
	C677.213745,401.730591 669.482178,401.730591 661.236206,401.730591 
	C661.236206,394.208160 661.259460,386.758942 661.230347,379.309937 
	C661.193298,369.814667 661.218628,360.316559 660.948608,350.827332 
	C660.904236,349.267761 659.632446,346.582733 658.665283,346.458282 
	C656.814697,346.220093 653.694336,346.885284 653.021423,348.176514 
	C651.163452,351.741425 649.375000,355.782928 649.207092,359.706543 
	C648.679993,372.015930 648.909485,384.357758 648.848450,396.687012 
	C648.840393,398.310852 648.847290,399.934784 648.847290,401.787903 
	C640.700012,401.787903 632.970337,401.787903 625.088379,401.787903 
	C625.088379,379.816345 625.088379,358.069672 625.088379,336.226440 
	C632.988770,335.647827 640.703491,335.082794 648.896118,334.482758 
	C648.896118,337.853333 648.896118,341.080841 648.896118,344.766266 
	C663.163330,329.981293 677.912231,330.959991 685.500549,344.515045 
	C689.879028,339.203308 695.085693,335.381104 702.043701,334.248169 
	C713.947083,332.309967 721.811462,338.413849 721.954712,350.391144 
	C722.157898,367.375610 722.006287,384.364258 722.006287,401.687347 
	C714.165588,401.687347 706.420349,401.687347 698.261902,401.687347 
	C698.181091,400.695099 697.991516,399.438660 697.989563,398.181946 
	C697.966797,383.185272 698.110046,368.185974 697.828491,353.194519 
	C697.783691,350.809967 696.411621,347.056122 694.695496,346.385284 
	C691.040527,344.956573 688.296631,347.902893 687.281372,351.277679 
	C686.145142,355.054657 685.429688,359.067108 685.272217,363.006683 
	C684.959656,370.826202 685.155762,378.666016 685.141602,386.997009 
z"/>
<path fill="#060606" opacity="1.000000" stroke="none" 
	d="
M308.477844,552.462402 
	C286.479858,568.072083 267.392120,586.260559 251.172134,607.508667 
	C250.560547,607.072205 249.948975,606.635742 249.337402,606.199280 
	C256.910095,591.222839 263.476440,575.625854 272.252899,561.391602 
	C294.503387,525.304260 324.992798,498.840698 365.956696,485.569641 
	C369.207184,484.516602 371.705627,484.662872 374.674438,486.727417 
	C384.865601,493.814545 395.314789,500.530640 406.339905,507.834930 
	C370.338135,516.345642 338.213379,531.391479 308.477844,552.462402 
z"/>
<path fill="#060606" opacity="1.000000" stroke="none" 
	d="
M174.875366,545.074707 
	C160.848495,537.480286 147.528000,529.192688 133.337296,522.853027 
	C119.177101,516.527039 104.145058,512.152649 89.445915,506.904999 
	C99.572495,499.981689 110.189087,492.610413 120.980049,485.503937 
	C122.184563,484.710693 124.483299,485.044678 126.099655,485.490326 
	C156.913177,493.986267 181.634308,511.870941 202.673080,535.392273 
	C221.004898,555.887268 233.669006,579.638611 242.872803,605.373169 
	C243.129501,606.090942 243.026581,606.937378 243.149368,608.428223 
	C224.034912,582.854736 201.367493,562.151917 174.875366,545.074707 
z"/>
<path fill="#050505" opacity="1.000000" stroke="none" 
	d="
M560.092407,338.993103 
	C574.243896,332.264648 588.414246,332.482544 602.573792,337.254517 
	C608.408752,339.221008 610.694702,344.073059 610.623657,350.258911 
	C610.478271,362.912598 610.486084,375.570282 610.626343,388.224152 
	C610.696289,394.542419 612.276306,395.652588 618.399597,394.164886 
	C619.045532,395.756439 619.710083,397.393860 620.363586,399.004028 
	C609.110779,405.499146 594.340698,404.130524 588.222717,395.868530 
	C581.669678,402.218933 573.826660,404.024963 564.945679,402.431427 
	C558.171875,401.215973 553.025940,398.088348 551.020569,391.266876 
	C548.768921,383.607635 549.177429,376.000031 555.738281,370.677734 
	C559.873535,367.323181 565.198242,365.408203 570.054016,362.976624 
	C574.189270,360.905884 578.671692,359.418549 582.537476,356.948395 
	C587.105652,354.029297 587.981689,349.876068 585.995544,345.196503 
	C584.121155,340.780212 579.144165,338.859467 572.673157,340.261749 
	C568.180420,341.235321 565.050293,343.741882 565.062317,348.727203 
	C565.068970,351.481110 565.571655,354.233795 565.895203,357.426056 
	C565.002625,357.316925 564.239258,357.262878 563.491333,357.125092 
	C560.730103,356.616486 557.973877,356.080200 555.168945,355.545349 
	C553.967041,349.155792 554.037109,343.379974 560.092407,338.993103 
M574.282593,387.771637 
	C575.273682,390.462769 575.479004,394.562164 579.431335,393.742981 
	C581.803345,393.251312 585.240173,390.596436 585.513123,388.554871 
	C586.627808,380.214813 586.708313,371.736450 587.169800,363.309052 
	C586.409119,362.998932 585.648438,362.688843 584.887756,362.378723 
	C581.427979,366.767578 577.238892,370.788940 574.774536,375.679382 
	C573.228760,378.747101 574.274597,383.120758 574.282593,387.771637 
z"/>
<path fill="#070707" opacity="1.000000" stroke="none" 
	d="
M160.013382,544.975586 
	C184.714279,559.119202 206.160553,576.714355 224.992691,597.885681 
	C178.592422,566.532898 127.524261,553.093506 70.465019,557.428223 
	C79.351051,547.778320 87.145935,539.250244 95.062149,530.836304 
	C95.696671,530.161865 97.175331,530.024292 98.248459,530.058044 
	C119.740181,530.734497 140.583313,534.150879 160.013382,544.975586 
z"/>
<path fill="#070707" opacity="1.000000" stroke="none" 
	d="
M379.652222,557.505371 
	C340.240692,561.533142 304.680847,574.724731 272.373444,596.809753 
	C271.266937,597.566162 269.824310,597.830933 268.336639,597.943787 
	C285.922668,578.855896 305.601562,562.511902 327.662994,548.940857 
	C347.914856,536.482971 369.904572,530.690308 393.469482,530.182373 
	C395.034821,530.148621 397.188904,530.083557 398.093536,530.998047 
	C406.584595,539.581665 414.862854,548.375793 423.494171,557.414368 
	C408.549591,557.414368 394.325134,557.414368 379.652222,557.505371 
z"/>
<path fill="#030303" opacity="1.000000" stroke="none" 
	d="
M823.988770,341.966919 
	C819.528503,348.014984 815.385193,353.857330 810.942444,359.462341 
	C809.212219,361.645172 809.190491,363.175629 810.585754,365.568909 
	C817.507141,377.440613 824.200195,389.445404 831.324890,402.023285 
	C822.438965,402.023285 814.190063,402.137085 805.951233,401.900391 
	C804.716553,401.864929 803.124268,400.434021 802.388184,399.227264 
	C798.692383,393.168274 795.226318,386.969238 791.393066,380.322693 
	C787.327026,385.805847 783.291077,390.681671 779.909363,395.975403 
	C776.810242,400.826721 773.277222,403.720581 766.760925,401.370636 
	C770.686768,396.062439 774.077942,390.057373 778.800659,385.403534 
	C787.188965,377.137573 787.354980,369.617249 780.353699,360.252014 
	C774.964355,353.043091 771.273865,344.564178 766.460754,335.996368 
	C775.475769,335.996368 783.737366,335.882355 791.988708,336.121552 
	C793.200806,336.156708 794.746887,337.636566 795.483765,338.846680 
	C798.593384,343.952911 801.455139,349.210144 804.880310,355.245056 
	C808.524170,350.395447 812.332031,346.086182 815.247070,341.239838 
	C818.306824,336.152832 822.297424,334.989777 828.031372,336.490417 
	C826.688232,338.298340 825.437195,339.982330 823.988770,341.966919 
z"/>
<path fill="#080808" opacity="1.000000" stroke="none" 
	d="
M386.835876,564.911621 
	C397.012817,562.695679 404.272369,566.486938 411.091034,573.307495 
	C419.191528,581.410278 428.156372,588.650452 436.772522,596.235046 
	C438.610962,597.853455 440.560516,599.345581 442.065430,601.497375 
	C391.492096,584.956299 340.844727,578.551758 289.083984,595.104431 
	C319.357574,577.696167 351.396210,566.560608 386.835876,564.911621 
z"/>
<path fill="#080808" opacity="1.000000" stroke="none" 
	d="
M97.265213,564.456177 
	C136.564575,565.014709 172.401138,576.063538 205.814529,595.735657 
	C181.016617,587.097839 155.524292,584.422668 129.464630,585.943604 
	C103.452225,587.461731 78.229156,592.869873 53.071060,600.440796 
	C54.320435,599.296021 55.558468,598.138489 56.820969,597.008423 
	C68.102142,586.909912 79.328331,576.748230 90.741760,566.801453 
	C92.288162,565.453857 94.779938,565.190918 97.265213,564.456177 
z"/>
<path fill="#000000" opacity="1.000000" stroke="none" 
	d="
M735.956482,355.000549 
	C735.956482,348.536957 735.956482,342.573273 735.956482,336.413818 
	C743.919312,335.825928 751.648254,335.255280 759.687256,334.661743 
	C759.687256,356.953766 759.687256,379.268188 759.687256,401.801880 
	C751.910095,401.801880 744.181641,401.801880 735.956482,401.801880 
	C735.956482,386.308960 735.956482,370.904694 735.956482,355.000549 
z"/>
<path fill="#070707" opacity="1.000000" stroke="none" 
	d="
M262.665100,561.718384 
	C257.239105,572.315735 252.058228,582.638306 247.309753,592.099365 
	C237.947220,575.232788 228.201279,557.675537 218.568832,540.322754 
	C237.093552,540.322754 256.646667,540.322754 276.683807,540.322754 
	C272.044250,547.437195 267.477203,554.440369 262.665100,561.718384 
z"/>
<path fill="#111111" opacity="1.000000" stroke="none" 
	d="
M438.939880,610.283325 
	C443.589508,611.732727 448.239105,613.182129 452.888733,614.631531 
	C452.809357,615.167542 452.729980,615.703552 452.650604,616.239563 
	C395.616577,607.769897 338.538940,604.279724 281.343018,614.302368 
	C302.276550,603.167175 364.069641,599.905457 413.931335,606.941772 
	C421.504028,608.223694 428.282501,609.389587 435.311584,610.700195 
	C436.688080,610.657715 437.813995,610.470520 438.939880,610.283325 
z"/>
<path fill="#111111" opacity="1.000000" stroke="none" 
	d="
M68.040802,608.899902 
	C82.353142,607.099426 96.621468,604.737427 110.986679,603.611389 
	C144.426300,600.990234 177.470551,604.017456 210.020325,612.189880 
	C210.615616,612.339417 211.138168,612.778503 212.434311,613.486572 
	C193.000778,611.750977 174.417999,609.244446 155.775070,608.661621 
	C136.668167,608.064331 117.471001,608.822449 98.371323,609.960449 
	C79.651993,611.075806 61.005650,613.416199 42.118839,614.301697 
	C46.206470,612.896729 50.294098,611.491760 54.979557,610.395569 
	C57.883293,610.704285 60.189198,610.704285 63.183479,610.704285 
	C62.052769,609.244568 61.472847,608.495911 60.892929,607.747253 
	C62.362679,607.149780 63.832424,606.552246 65.648972,606.294556 
	C66.014816,607.681335 66.033859,608.728210 66.052910,609.775085 
	C66.715553,609.483398 67.378181,609.191650 68.040802,608.899902 
z"/>
<path fill="#141413" opacity="1.000000" stroke="none" 
	d="
M438.723145,609.995972 
	C437.813995,610.470520 436.688080,610.657715 435.122559,610.344482 
	C427.786499,608.235718 420.890015,606.627319 413.993561,605.018982 
	C396.988190,600.648071 379.621552,599.034668 362.147491,598.475769 
	C331.573242,597.497864 301.877319,602.444275 272.916473,612.124146 
	C271.441101,612.617310 269.896332,612.903076 268.315887,612.886414 
	C324.517029,584.632751 381.358246,588.597656 438.723145,609.995972 
z"/>
<path fill="#111111" opacity="1.000000" stroke="none" 
	d="
M210.835815,608.562866 
	C190.930038,603.061829 170.715179,599.591980 150.044495,598.630981 
	C126.643463,597.543091 103.574463,599.795166 80.692429,604.538513 
	C78.640717,604.963745 76.558823,605.243408 74.490944,605.590698 
	C74.286583,605.151794 74.082230,604.712891 73.877869,604.273987 
	C74.999008,603.529419 76.023941,602.412964 77.255310,602.094482 
	C111.738617,593.174133 146.539978,589.122314 181.782532,596.931152 
	C191.591095,599.104492 201.035446,602.921387 210.820740,606.728821 
	C210.941681,607.836487 210.888748,608.199707 210.835815,608.562866 
z"/>
<path fill="#070707" opacity="1.000000" stroke="none" 
	d="
M759.148193,318.087280 
	C759.287476,323.400696 756.510620,325.803192 752.028381,326.547546 
	C746.976379,327.386536 741.815308,327.681915 738.283630,323.120758 
	C734.995422,318.874084 737.260986,312.655243 742.345520,310.903992 
	C750.397827,308.130585 757.668945,311.062866 759.148193,318.087280 
z"/>
<path fill="#0E0E0E" opacity="1.000000" stroke="none" 
	d="
M431.942932,543.008301 
	C431.943390,546.961853 431.943390,550.433289 431.943390,555.416504 
	C425.444061,548.285522 419.788330,542.080078 413.576447,535.264465 
	C420.081573,535.264465 425.757507,535.264465 431.942444,535.264465 
	C431.942444,537.653503 431.942444,540.089844 431.942932,543.008301 
z"/>
<path fill="#0E0E0E" opacity="1.000000" stroke="none" 
	d="
M423.050110,573.943970 
	C419.827209,571.084717 416.863068,568.469543 412.702240,564.798645 
	C419.882202,565.235291 425.688629,565.588440 431.748016,565.956970 
	C431.748016,570.946838 431.748016,575.836121 431.748016,581.677246 
	C428.583679,578.869080 425.946289,576.528564 423.050110,573.943970 
z"/>
<path fill="#CCCCCA" opacity="1.000000" stroke="none" 
	d="
M414.024048,605.314941 
	C420.890015,606.627319 427.786499,608.235718 434.871948,610.199768 
	C428.282501,609.389587 421.504028,608.223694 414.335632,606.926819 
	C413.981995,606.400818 414.018280,606.005859 414.024048,605.314941 
z"/>
<path fill="#131312" opacity="1.000000" stroke="none" 
	d="
M60.525383,607.791992 
	C61.472847,608.495911 62.052769,609.244568 63.183479,610.704285 
	C60.189198,610.704285 57.883293,610.704285 55.349335,610.510925 
	C56.800137,609.490662 58.478989,608.663696 60.525383,607.791992 
z"/>
<path fill="#131312" opacity="1.000000" stroke="none" 
	d="
M68.023514,608.578979 
	C67.378181,609.191650 66.715553,609.483398 66.052910,609.775085 
	C66.033859,608.728210 66.014816,607.681335 65.998070,606.292358 
	C66.702095,605.629761 67.403816,605.309265 68.522980,605.451416 
	C68.959846,606.208984 68.979271,606.503784 68.998680,606.798584 
	C68.667854,607.285095 68.337036,607.771606 68.023514,608.578979 
z"/>
<path fill="#111111" opacity="1.000000" stroke="none" 
	d="
M69.415642,606.840820 
	C68.979271,606.503784 68.959846,606.208984 68.918930,605.471436 
	C70.457664,604.532532 72.017891,604.036255 73.578117,603.539978 
	C73.769180,604.077148 73.960251,604.614319 74.151321,605.151489 
	C72.711746,605.728699 71.272171,606.305908 69.415642,606.840820 
z"/>
<path fill="#131312" opacity="1.000000" stroke="none" 
	d="
M211.057587,608.725403 
	C210.888748,608.199707 210.941681,607.836487 211.084610,606.929321 
	C212.103882,606.674377 213.033157,606.963440 213.861664,607.713135 
	C213.464630,608.556824 213.168381,608.939941 212.872131,609.323059 
	C212.341202,609.178040 211.810272,609.032959 211.057587,608.725403 
z"/>
<path fill="#111111" opacity="1.000000" stroke="none" 
	d="
M213.054291,609.597534 
	C213.168381,608.939941 213.464630,608.556824 214.086609,608.003662 
	C214.020355,608.513123 213.628387,609.192627 213.054291,609.597534 
z"/>
<path fill="#F6F6F6" opacity="1.000000" stroke="none" 
	d="
M88.573975,374.428040 
	C83.989647,364.222626 81.936440,353.832245 81.857849,343.080963 
	C81.742233,327.263672 81.828033,311.444885 81.828033,295.381378 
	C90.725426,293.682678 99.654289,292.650421 108.166962,290.182556 
	C118.797974,287.100494 129.068558,282.785522 139.542465,279.139862 
	C141.060822,278.611389 143.177963,278.183289 144.455399,278.826385 
	C162.634369,287.978058 181.882126,293.292542 201.995621,295.275421 
	C202.279709,295.634399 202.664780,295.894470 202.660324,296.147644 
	C202.318344,315.623291 202.969955,335.186615 201.302979,354.550140 
	C199.433929,376.260742 187.366821,393.114807 170.593826,406.351135 
	C162.414276,412.806000 153.293259,418.077698 144.497772,423.728363 
	C143.512634,424.361298 141.583496,424.509247 140.573334,423.973969 
	C118.734360,412.401459 99.540321,397.992432 88.573975,374.428040 
M139.773575,413.710144 
	C141.426208,413.703857 143.393997,414.280701 144.675705,413.588013 
	C149.636414,410.907196 154.605743,408.135010 159.160507,404.829926 
	C174.470490,393.720490 186.824097,380.212128 191.382492,361.223328 
	C195.988098,342.037811 193.047577,322.484589 194.149246,303.265411 
	C192.934509,302.826813 192.324951,302.472473 191.681778,302.394073 
	C175.005051,300.362335 159.400940,294.844788 144.184174,287.984283 
	C143.111130,287.500488 141.464142,287.794800 140.245697,288.206116 
	C129.722748,291.758698 119.316460,295.679169 108.708900,298.950012 
	C102.759758,300.784424 96.495850,301.597992 90.531418,302.838715 
	C90.531418,316.497772 90.332588,329.827057 90.581734,343.147919 
	C90.893311,359.806793 96.033180,374.833649 106.978638,387.606476 
	C116.062386,398.206757 126.723915,406.881714 139.773575,413.710144 
z"/>
<path fill="#F6F6F6" opacity="1.000000" stroke="none" 
	d="
M574.220093,387.340057 
	C574.274597,383.120758 573.228760,378.747101 574.774536,375.679382 
	C577.238892,370.788940 581.427979,366.767578 584.887756,362.378723 
	C585.648438,362.688843 586.409119,362.998932 587.169800,363.309052 
	C586.708313,371.736450 586.627808,380.214813 585.513123,388.554871 
	C585.240173,390.596436 581.803345,393.251312 579.431335,393.742981 
	C575.479004,394.562164 575.273682,390.462769 574.220093,387.340057 
z"/>
<path fill="#060605" opacity="1.000000" stroke="none" 
	d="
M139.462845,413.515991 
	C126.723915,406.881714 116.062386,398.206757 106.978638,387.606476 
	C96.033180,374.833649 90.893311,359.806793 90.581734,343.147919 
	C90.332588,329.827057 90.531418,316.497772 90.531418,302.838715 
	C96.495850,301.597992 102.759758,300.784424 108.708900,298.950012 
	C119.316460,295.679169 129.722748,291.758698 140.245697,288.206116 
	C141.464142,287.794800 143.111130,287.500488 144.184174,287.984283 
	C159.400940,294.844788 175.005051,300.362335 191.681778,302.394073 
	C192.324951,302.472473 192.934509,302.826813 194.149246,303.265411 
	C193.047577,322.484589 195.988098,342.037811 191.382492,361.223328 
	C186.824097,380.212128 174.470490,393.720490 159.160507,404.829926 
	C154.605743,408.135010 149.636414,410.907196 144.675705,413.588013 
	C143.393997,414.280701 141.426208,413.703857 139.462845,413.515991 
M96.022156,315.570740 
	C96.017639,324.559204 95.885094,333.549835 96.036049,342.535706 
	C96.324303,359.695526 102.232407,374.677124 113.990288,387.239563 
	C121.943909,395.737396 131.089310,402.656525 141.595856,408.137085 
	C141.595856,369.755157 141.595856,331.952484 141.595856,295.119812 
	C126.536644,299.517975 111.529282,303.901001 96.025925,308.428894 
	C96.025925,309.970306 96.025925,312.284302 96.022156,315.570740 
z"/>
<path fill="#FCFCFC" opacity="1.000000" stroke="none" 
	d="
M96.024040,315.084534 
	C96.025925,312.284302 96.025925,309.970306 96.025925,308.428894 
	C111.529282,303.901001 126.536644,299.517975 141.595856,295.119812 
	C141.595856,331.952484 141.595856,369.755157 141.595856,408.137085 
	C131.089310,402.656525 121.943909,395.737396 113.990288,387.239563 
	C102.232407,374.677124 96.324303,359.695526 96.036049,342.535706 
	C95.885094,333.549835 96.017639,324.559204 96.024040,315.084534 
z"/>
</svg>